<?xml version="1.0" standalone="no"?><svg xmlns="http://www.w3.org/2000/svg" viewBox="0 0 1440 320"><path fill="#ffffff" fill-opacity="1" d="M0,96L30,112C60,128,120,160,180,192C240,224,300,256,360,245.3C420,235,480,181,540,165.3C600,149,660,171,720,186.7C780,203,840,213,900,192C960,171,1020,117,1080,128C1140,139,1200,213,1260,218.7C1320,224,1380,160,1410,128L1440,96L1440,0L1410,0C1380,0,1320,0,1260,0C1200,0,1140,0,1080,0C1020,0,960,0,900,0C840,0,780,0,720,0C660,0,600,0,540,0C480,0,420,0,360,0C300,0,240,0,180,0C120,0,60,0,30,0L0,0Z"></path></svg>