<?xml version="1.0" standalone="no"?><svg xmlns="http://www.w3.org/2000/svg" viewBox="0 0 1440 320"><path fill="#ffffff" fill-opacity="1" d="M0,160L30,144C60,128,120,96,180,101.3C240,107,300,149,360,186.7C420,224,480,256,540,272C600,288,660,288,720,266.7C780,245,840,203,900,197.3C960,192,1020,224,1080,202.7C1140,181,1200,107,1260,106.7C1320,107,1380,181,1410,218.7L1440,256L1440,320L1410,320C1380,320,1320,320,1260,320C1200,320,1140,320,1080,320C1020,320,960,320,900,320C840,320,780,320,720,320C660,320,600,320,540,320C480,320,420,320,360,320C300,320,240,320,180,320C120,320,60,320,30,320L0,320Z"></path></svg>